<svg
  width="14"
  height="15"
  viewBox="0 0 14 15"
  fill="none"
  xmlns="http://www.w3.org/2000/svg"
>
  <path
    d="M12.6875 7.38042C12.6875 5.35698 11.5938 3.4976 9.84375 2.45854C8.06641 1.44682 5.90625 1.44682 4.15625 2.45854C2.37891 3.4976 1.3125 5.35698 1.3125 7.38042C1.3125 9.4312 2.37891 11.2906 4.15625 12.3296C5.90625 13.3414 8.06641 13.3414 9.84375 12.3296C11.5938 11.2906 12.6875 9.4312 12.6875 7.38042ZM0 7.38042C0 4.89214 1.3125 2.59526 3.5 1.33745C5.66016 0.0796356 8.3125 0.0796356 10.5 1.33745C12.6602 2.59526 14 4.89214 14 7.38042C14 9.89604 12.6602 12.1929 10.5 13.4507C8.3125 14.7085 5.66016 14.7085 3.5 13.4507C1.3125 12.1929 0 9.89604 0 7.38042ZM6.34375 3.66167C6.34375 3.3062 6.61719 3.00542 7 3.00542C7.35547 3.00542 7.65625 3.3062 7.65625 3.66167V7.05229L9.98047 8.58354C10.2812 8.80229 10.3633 9.21245 10.1719 9.51323C9.95312 9.81401 9.54297 9.89604 9.24219 9.67729L6.61719 7.92729C6.45312 7.81792 6.34375 7.59917 6.34375 7.38042V3.66167Z"
    fill="black"
  />
</svg>
